name ./resultDataOpenSim/trcMotMarkerGrf/sub09/grf-03-07.mot
datacolumns 19
datarows 17
range 0.98000000 1.04400000
endheader

                time	     ground_force_vx	     ground_force_vy	     ground_force_vz	     ground_force_px	     ground_force_py	     ground_force_pz	   l_ground_force_vx	   l_ground_force_vy	   l_ground_force_vz	   l_ground_force_px	   l_ground_force_py	   l_ground_force_pz	     ground_torque_x	     ground_torque_y	     ground_torque_z	   l_ground_torque_x	   l_ground_torque_y	   l_ground_torque_z	
          0.98000000	          0.00000000	          0.00000000	          0.00000000	          0.00000000	          0.00000000	          0.00000000	          1.86937234	        422.86474313	         18.23631949	          0.12004419	         -0.05000000	         -0.00990995	          0.00000000	          0.00000000	          0.00000000	          0.00000000	         -2.18304197	          0.00000000	
          0.98400000	          0.00000000	          0.00000000	          0.00000000	          0.00000000	          0.00000000	          0.00000000	          5.87632586	        427.54432487	         18.79452778	          0.12056582	         -0.05000000	         -0.00957861	          0.00000000	          0.00000000	          0.00000000	          0.00000000	         -2.39812833	          0.00000000	
          0.98800000	          0.00000000	          0.00000000	          0.00000000	          0.00000000	          0.00000000	          0.00000000	         10.25338700	        432.94227401	         19.16185582	          0.12118706	         -0.05000000	         -0.00921421	          0.00000000	          0.00000000	          0.00000000	          0.00000000	         -2.62291116	          0.00000000	
          0.99200000	          0.00000000	          0.00000000	          0.00000000	          0.00000000	          0.00000000	          0.00000000	         14.88408809	        439.13927550	         19.33210526	          0.12182386	         -0.05000000	         -0.00885182	          0.00000000	          0.00000000	          0.00000000	          0.00000000	         -2.85437038	          0.00000000	
          0.99600000	          0.00000000	          0.00000000	          0.00000000	          0.00000000	          0.00000000	          0.00000000	         19.61429738	        446.22766986	         19.35690319	          0.12238768	         -0.05000000	         -0.00855150	          0.00000000	          0.00000000	          0.00000000	          0.00000000	         -3.08842077	          0.00000000	
          1.00000000	          0.00000000	          0.00000000	          0.00000000	          0.00000000	          0.00000000	          0.00000000	         24.27693789	        454.29338260	         19.31800411	          0.12281209	         -0.05000000	         -0.00835894	          0.00000000	          0.00000000	          0.00000000	          0.00000000	         -3.32063252	          0.00000000	
          1.00400000	          0.00000000	          0.00000000	          0.00000000	          0.00000000	          0.00000000	          0.00000000	         28.71834236	        463.43409089	         19.28983926	          0.12311470	         -0.05000000	         -0.00824832	          0.00000000	          0.00000000	          0.00000000	          0.00000000	         -3.54720177	          0.00000000	
          1.00800000	          0.00000000	          0.00000000	          0.00000000	          0.00000000	          0.00000000	          0.00000000	         32.83275967	        473.73177431	         19.30932015	          0.12337839	         -0.05000000	         -0.00814973	          0.00000000	          0.00000000	          0.00000000	          0.00000000	         -3.76576810	          0.00000000	
          1.01200000	          0.00000000	          0.00000000	          0.00000000	          0.00000000	          0.00000000	          0.00000000	         36.59001202	        485.19358370	         19.36632750	          0.12369779	         -0.05000000	         -0.00800478	          0.00000000	          0.00000000	          0.00000000	          0.00000000	         -3.97565689	          0.00000000	
          1.01600000	          0.00000000	          0.00000000	          0.00000000	          0.00000000	          0.00000000	          0.00000000	         40.02391867	        497.75894860	         19.42557744	          0.12414191	         -0.05000000	         -0.00778561	          0.00000000	          0.00000000	          0.00000000	          0.00000000	         -4.17730364	          0.00000000	
          1.02000000	          0.00000000	          0.00000000	          0.00000000	          0.00000000	          0.00000000	          0.00000000	         43.20888353	        511.35882862	         19.47083697	          0.12469272	         -0.05000000	         -0.00749092	          0.00000000	          0.00000000	          0.00000000	          0.00000000	         -4.37107794	          0.00000000	
          1.02400000	          0.00000000	          0.00000000	          0.00000000	          0.00000000	          0.00000000	          0.00000000	         46.25840779	        525.93177790	         19.52722545	          0.12528014	         -0.05000000	         -0.00714821	          0.00000000	          0.00000000	          0.00000000	          0.00000000	         -4.55619267	          0.00000000	
          1.02800000	          0.00000000	          0.00000000	          0.00000000	          0.00000000	          0.00000000	          0.00000000	         49.31337436	        541.38105513	         19.64606482	          0.12585496	         -0.05000000	         -0.00679554	          0.00000000	          0.00000000	          0.00000000	          0.00000000	         -4.73037929	          0.00000000	
          1.03200000	          0.00000000	          0.00000000	          0.00000000	          0.00000000	          0.00000000	          0.00000000	         52.50240495	        557.53743057	         19.88442319	          0.12640431	         -0.05000000	         -0.00646171	          0.00000000	          0.00000000	          0.00000000	          0.00000000	         -4.89047479	          0.00000000	
          1.03600000	          0.00000000	          0.00000000	          0.00000000	          0.00000000	          0.00000000	          0.00000000	         55.91511643	        574.18814942	         20.29144985	          0.12692780	         -0.05000000	         -0.00615586	          0.00000000	          0.00000000	          0.00000000	          0.00000000	         -5.03349399	          0.00000000	
          1.04000000	          0.00000000	          0.00000000	          0.00000000	          0.00000000	          0.00000000	          0.00000000	         59.60940152	        591.14701440	         20.89269253	          0.12741040	         -0.05000000	         -0.00587929	          0.00000000	          0.00000000	          0.00000000	          0.00000000	         -5.15757835	          0.00000000	
          1.04400000	          0.00000000	          0.00000000	          0.00000000	          0.00000000	          0.00000000	          0.00000000	         63.61733750	        608.29707190	         21.67812214	          0.12781051	         -0.05000000	         -0.00564295	          0.00000000	          0.00000000	          0.00000000	          0.00000000	         -5.26240704	          0.00000000	
